<svg xmlns="http://www.w3.org/2000/svg" viewBox="0 0 32 32" width="32" height="32"><circle cx="16" cy="16" r="16" fill="#1da1f2"/><path d="M25.944 10.542c-.793.352-1.646.59-2.54.697a4.48 4.48 0 0 0 1.964-2.47 8.93 8.93 0 0 1-2.828 1.08 4.48 4.48 0 0 0-7.635 4.086A12.72 12.72 0 0 1 7.1 9.86a4.48 4.48 0 0 0 1.387 5.976c-.7-.022-1.36-.215-1.937-.537v.054a4.48 4.48 0 0 0 3.594 4.393c-.33.09-.68.14-1.04.14-.254 0-.5-.025-.74-.07a4.48 4.48 0 0 0 4.18 3.11A8.98 8.98 0 0 1 6 24.13a12.68 12.68 0 0 0 6.88 2.02c8.26 0 12.78-6.84 12.78-12.77 0-.19-.01-.38-.02-.57a9.1 9.1 0 0 0 2.24-2.27z" fill="#fff"/></svg>
